<?xml version="1.0" standalone="no"?>
<!DOCTYPE svg PUBLIC "-//W3C//DTD SVG 20010904//EN"
 "http://www.w3.org/TR/2001/REC-SVG-20010904/DTD/svg10.dtd">
<svg version="1.0" xmlns="http://www.w3.org/2000/svg"
 width="72.000000pt" height="72.000000pt" viewBox="0 0 72.000000 72.000000"
 preserveAspectRatio="xMidYMid meet">

<g transform="translate(0.000000,72.000000) scale(0.100000,-0.100000)"
fill="#00ad03" stroke="none">
<path d="M50 707 c-48 -25 -50 -40 -48 -359 3 -295 3 -298 26 -320 22 -23 23
-23 332 -23 309 0 309 0 332 23 23 23 23 23 23 332 0 309 0 310 -23 332 -22
23 -25 23 -320 26 -226 2 -303 -1 -322 -11z m590 -171 l0 -104 -150 -112 -151
-113 28 -29 27 -28 -32 -32 -32 -32 -45 44 -45 44 -50 -49 -50 -49 -32 32 -32
32 49 50 49 50 -44 45 -44 45 32 32 32 32 28 -27 29 -28 113 151 112 150 104
0 104 0 0 -104z"/>
</g>
</svg>
