<?xml version="1.0" standalone="no"?>
<!DOCTYPE svg PUBLIC "-//W3C//DTD SVG 20010904//EN"
 "http://www.w3.org/TR/2001/REC-SVG-20010904/DTD/svg10.dtd">
<svg version="1.0" xmlns="http://www.w3.org/2000/svg"
 width="72.000000pt" height="72.000000pt" viewBox="0 0 72.000000 72.000000"
 preserveAspectRatio="xMidYMid meet">

<g transform="translate(0.000000,72.000000) scale(0.100000,-0.100000)"
fill="#8205b4" stroke="none">
<path d="M45 708 c-44 -25 -44 -30 -45 -341 0 -304 2 -326 39 -354 22 -17 603
-18 634 -1 46 24 46 28 47 341 0 304 -2 326 -39 354 -22 17 -607 18 -636 1z
m375 -143 c19 -38 39 -73 44 -76 5 -4 39 -10 75 -14 122 -13 128 -32 40 -121
l-60 -61 15 -79 c23 -124 1 -140 -110 -78 l-64 36 -64 -36 c-112 -63 -134 -49
-110 74 l15 83 -60 61 c-88 89 -82 108 40 121 36 4 71 10 76 14 6 3 20 29 32
56 53 121 78 125 131 20z"/>
</g>
</svg>
