<?xml version="1.0" standalone="no"?>
<!DOCTYPE svg PUBLIC "-//W3C//DTD SVG 20010904//EN"
 "http://www.w3.org/TR/2001/REC-SVG-20010904/DTD/svg10.dtd">
<svg version="1.0" xmlns="http://www.w3.org/2000/svg"
 width="2560.000000pt" height="891.000000pt" viewBox="0 0 2560.000000 891.000000"
 preserveAspectRatio="xMidYMid meet">

<g transform="translate(0.000000,891.000000) scale(0.100000,-0.100000)"
fill="#000000" stroke="none">
<path d="M13310 6632 c0 -51 -29 -78 -111 -103 -68 -21 -122 -51 -142 -78 -30
-43 -73 -61 -188 -80 -128 -22 -159 -33 -177 -62 -10 -16 -9 -19 14 -25 34 -9
156 4 204 21 21 7 57 27 80 44 24 17 53 31 66 31 51 0 137 42 183 90 32 34 59
52 90 60 77 20 92 36 90 91 l-3 49 -53 0 -53 0 0 -38z"/>
<path d="M16870 6366 c-41 -8 -97 -17 -123 -21 -36 -5 -59 -16 -85 -40 l-36
-33 96 -7 c62 -5 112 -3 144 4 160 39 213 46 325 46 69 0 95 3 92 11 -2 7 -19
14 -36 17 -18 3 -50 10 -71 15 -70 19 -226 22 -306 8z"/>
<path d="M9849 6320 c-36 -21 -130 -46 -304 -80 -79 -16 -144 -38 -175 -60
-31 -22 -143 -66 -190 -75 -19 -4 -73 -27 -120 -52 -55 -29 -125 -56 -199 -75
-63 -16 -126 -37 -140 -47 -48 -34 -135 -69 -226 -92 -49 -12 -108 -30 -130
-41 -110 -53 -171 -70 -298 -81 -153 -13 -259 -1 -330 36 -57 31 -80 26 -113
-22 -36 -54 -33 -120 10 -204 19 -36 43 -74 55 -86 61 -61 66 -100 86 -696 10
-282 21 -476 30 -520 31 -157 58 -415 56 -543 -1 -92 -14 -148 -56 -246 -17
-40 -22 -118 -10 -157 17 -54 108 -152 161 -174 19 -8 54 -17 79 -20 25 -4 48
-11 51 -16 11 -18 80 -6 229 40 33 10 93 24 133 30 73 11 141 42 192 86 14 12
47 35 75 50 56 32 61 36 118 88 23 21 56 44 72 51 35 16 78 54 94 84 6 12 30
31 53 43 38 20 108 83 108 99 0 3 16 14 36 24 40 19 144 97 144 108 0 4 38 24
84 46 46 22 87 45 90 51 8 12 111 61 168 80 20 7 42 19 48 27 7 7 18 14 24 14
19 0 56 56 56 85 0 68 -67 127 -157 140 -51 7 -123 -7 -123 -24 0 -12 -71 -57
-102 -65 -15 -3 -55 -32 -89 -63 -33 -31 -73 -66 -87 -78 -15 -11 -108 -100
-206 -198 -99 -97 -203 -193 -232 -212 -28 -19 -63 -48 -76 -64 -14 -15 -58
-45 -99 -66 -41 -20 -83 -45 -94 -54 -11 -10 -27 -21 -35 -25 -8 -4 -26 -13
-40 -21 -35 -21 -147 -18 -184 4 -17 9 -37 30 -46 46 -17 31 -60 316 -60 393
0 62 35 129 79 152 20 10 58 39 84 65 27 26 68 55 90 65 23 10 56 32 72 49 45
47 48 49 80 77 31 26 132 118 247 225 37 34 78 69 91 78 13 9 42 35 64 59 21
23 44 42 51 42 15 0 112 98 112 113 0 7 9 23 20 37 26 33 25 86 -2 126 -44 64
-84 59 -186 -21 -45 -36 -86 -65 -91 -65 -11 0 -136 -112 -186 -168 -83 -92
-211 -219 -250 -247 -22 -16 -56 -44 -75 -63 -43 -41 -70 -56 -135 -71 -63
-15 -112 2 -147 51 -21 31 -23 43 -23 173 0 77 3 255 7 395 9 284 18 332 69
372 17 13 49 38 72 57 69 56 143 99 182 107 20 3 42 12 48 19 7 7 28 20 47 30
18 9 51 30 73 46 22 16 59 34 81 40 23 6 51 20 63 31 38 35 109 71 188 95 50
15 74 27 130 63 41 27 102 55 150 70 22 7 67 25 100 40 33 15 80 37 105 48 49
22 144 42 199 42 45 0 181 45 207 68 10 9 48 30 84 47 131 59 194 129 187 205
-7 68 -39 90 -130 90 -40 0 -79 -5 -88 -10z"/>
<path d="M11358 6258 c-36 -33 -58 -84 -58 -139 0 -15 -13 -53 -29 -85 -48
-97 -54 -155 -48 -431 7 -268 20 -517 37 -683 6 -58 15 -160 20 -228 5 -68 12
-127 15 -132 3 -5 12 -134 20 -287 8 -152 19 -302 24 -333 6 -30 15 -98 22
-150 6 -52 17 -108 24 -125 47 -109 65 -184 65 -273 0 -56 -6 -109 -16 -137
-21 -64 -15 -106 17 -124 44 -25 82 -1 108 66 29 75 26 123 -10 223 -17 47
-34 96 -39 110 -4 14 -14 39 -21 55 -17 40 -16 33 -33 255 -15 199 -20 237
-62 465 -42 226 -44 238 -54 340 -34 330 -45 1032 -21 1307 7 78 11 90 43 130
40 50 110 186 102 199 -13 21 -70 8 -106 -23z"/>
<path d="M12415 6236 c-67 -13 -161 -56 -158 -71 6 -24 186 -13 243 15 8 4 27
13 43 21 15 7 27 20 27 31 0 15 -8 18 -47 17 -27 -1 -75 -6 -108 -13z"/>
<path d="M16386 6239 c-58 -14 -159 -65 -174 -88 -12 -21 -10 -21 87 -21 55 0
113 5 128 11 88 35 123 54 123 66 0 8 4 12 9 9 5 -4 7 3 4 14 -5 18 -13 20
-72 19 -36 -1 -83 -5 -105 -10z"/>
<path d="M17710 6214 c0 -9 -9 -18 -20 -21 -11 -3 -20 -9 -20 -13 0 -5 -17
-14 -37 -20 -21 -7 -54 -22 -73 -35 -19 -12 -75 -46 -125 -74 -95 -55 -150
-90 -207 -131 -56 -41 -170 -115 -218 -143 -254 -148 -355 -210 -522 -322 -92
-62 -102 -68 -149 -107 -26 -21 -50 -38 -55 -38 -4 0 -17 -9 -28 -19 -25 -22
-77 -55 -126 -77 -47 -22 -141 -13 -237 20 -40 15 -77 26 -83 26 -5 0 -56 22
-113 49 -102 48 -171 73 -237 87 -19 3 -53 14 -75 24 -22 10 -48 20 -57 24
-32 10 -19 41 50 113 37 39 84 92 105 117 21 25 46 46 56 46 10 0 40 24 67 54
28 30 66 59 87 67 20 7 49 24 65 38 15 15 40 34 55 44 15 9 27 23 27 30 0 16
56 37 99 37 18 0 58 13 89 28 32 16 69 32 83 35 26 7 44 41 32 60 -8 13 -178
3 -218 -13 -16 -6 -34 -16 -40 -23 -26 -31 -79 -67 -99 -67 -12 0 -41 -9 -64
-20 -22 -11 -45 -20 -51 -20 -5 0 -29 -23 -54 -50 -25 -28 -61 -57 -81 -65
-33 -14 -126 -100 -126 -117 0 -5 -7 -8 -15 -8 -15 0 -115 -95 -115 -110 0 -4
-26 -33 -57 -64 l-58 -57 -55 4 c-48 4 -140 29 -245 66 -16 5 -50 17 -75 25
-85 27 -165 56 -197 72 -77 36 -111 43 -142 31 -29 -11 -31 -14 -31 -64 0 -44
3 -53 18 -53 9 0 31 -8 48 -19 27 -17 256 -99 423 -153 58 -19 121 -64 121
-86 0 -11 -29 -51 -81 -112 -26 -30 -53 -74 -60 -98 -7 -24 -29 -62 -49 -85
-45 -51 -62 -84 -85 -162 -10 -37 -31 -77 -56 -106 -27 -32 -43 -65 -54 -110
-20 -77 -31 -340 -18 -389 l10 -35 8 49 c6 35 13 50 26 53 11 3 19 8 19 12 0
34 24 141 35 158 8 11 24 63 35 115 24 102 40 151 48 144 5 -6 42 37 42 49 0
4 9 18 20 33 11 14 26 46 32 70 6 25 32 72 58 107 26 33 57 80 69 104 24 46
33 58 96 126 41 44 46 46 82 39 21 -3 81 -22 133 -42 52 -19 124 -41 160 -47
146 -28 224 -46 234 -54 6 -4 38 -16 71 -25 33 -10 91 -29 128 -42 147 -52
205 -32 462 156 90 66 133 96 164 115 9 6 48 31 86 56 39 25 113 71 165 102
52 32 102 61 110 67 152 94 352 198 400 206 19 4 45 16 57 27 12 11 31 25 42
31 12 6 73 43 137 81 64 39 130 78 148 88 17 10 48 36 69 57 30 31 37 47 37
78 0 21 -6 50 -12 65 -11 22 -20 27 -50 27 -28 0 -38 -4 -38 -16z"/>
<path d="M6385 6151 c-82 -72 -181 -136 -248 -161 -31 -12 -70 -32 -86 -46
-16 -13 -33 -24 -39 -24 -5 0 -22 -10 -37 -22 -15 -12 -55 -35 -89 -50 -34
-16 -68 -37 -76 -47 -8 -10 -40 -31 -70 -47 -30 -15 -94 -58 -141 -95 -47 -37
-97 -73 -110 -80 -13 -7 -44 -29 -69 -50 -25 -20 -63 -49 -84 -63 -72 -48
-329 -295 -395 -379 -23 -28 -58 -73 -79 -99 -70 -88 -173 -243 -203 -308 -17
-36 -36 -72 -44 -80 -15 -17 -61 -131 -70 -175 -12 -52 -67 -209 -81 -230 -8
-11 -14 -27 -14 -36 0 -9 -9 -44 -20 -78 -18 -58 -36 -142 -43 -206 -5 -42
-34 -129 -64 -195 -31 -68 -32 -70 -65 -112 -19 -24 -29 -49 -31 -83 -6 -69
-17 -108 -34 -122 -8 -6 -15 -25 -15 -41 -1 -20 -7 -32 -19 -35 -12 -3 -16 0
-12 10 5 12 2 13 -13 5 -10 -6 -27 -13 -36 -16 -22 -7 -24 -44 -3 -52 16 -6
19 -31 9 -59 -8 -20 -53 -43 -79 -39 -11 1 -22 -2 -26 -7 -4 -7 -11 -5 -20 4
-12 11 -17 12 -27 1 -15 -17 -16 -41 -1 -46 16 -5 -5 -44 -31 -58 -28 -15
-380 -22 -555 -11 -149 9 -208 22 -199 45 8 20 -46 65 -85 72 -136 24 -145 28
-176 77 -33 51 -80 80 -123 75 -26 -3 -27 -6 -27 -57 1 -49 4 -56 35 -82 40
-32 85 -78 115 -113 12 -14 52 -41 90 -61 39 -20 79 -45 90 -55 46 -40 115
-69 220 -90 120 -24 273 -67 292 -82 7 -6 10 -14 7 -19 -3 -5 1 -9 8 -9 10 0
10 -2 0 -9 -10 -6 -6 -10 15 -14 35 -7 128 4 113 13 -37 23 28 54 218 105 119
32 132 40 218 122 71 69 83 85 128 183 15 30 32 66 40 80 36 64 49 114 62 225
13 119 38 228 63 274 24 44 64 259 76 413 6 67 11 83 39 120 18 24 39 61 46
83 7 22 16 45 21 50 4 6 13 33 20 60 12 54 45 117 77 151 25 26 72 118 72 139
0 9 19 37 43 63 23 26 61 72 84 102 22 30 57 73 78 95 170 181 219 230 280
281 39 32 79 67 89 76 11 10 23 18 28 18 4 0 37 26 72 59 36 32 82 66 102 76
20 9 55 34 78 54 23 21 68 52 101 71 33 18 80 49 105 69 25 21 80 52 122 70
43 19 83 41 90 49 7 9 54 35 103 58 50 23 121 67 160 98 38 31 74 56 80 56 6
0 26 16 45 35 27 28 33 42 34 78 2 90 -46 101 -129 28z"/>
<path d="M19430 6154 c-8 -3 -25 -19 -37 -37 -29 -42 -30 -109 -4 -169 10 -24
22 -59 26 -77 4 -19 23 -54 42 -80 19 -25 39 -55 43 -67 23 -59 94 -150 199
-254 92 -91 131 -122 186 -149 39 -19 77 -40 86 -47 50 -44 267 -84 456 -84
101 0 177 -17 195 -44 12 -18 9 -69 -6 -98 -8 -14 -19 -50 -25 -78 -6 -28 -20
-71 -31 -95 -11 -24 -20 -49 -20 -56 0 -6 -11 -32 -24 -58 -30 -57 -51 -130
-83 -286 -13 -66 -30 -149 -37 -185 -7 -36 -19 -85 -27 -110 -11 -35 -13 -120
-12 -380 l1 -335 31 -85 c38 -103 78 -148 136 -154 94 -9 178 60 204 169 11
45 9 63 -15 170 -25 112 -27 135 -27 355 0 129 6 267 12 305 6 39 16 106 21
150 11 80 51 222 75 260 7 11 24 62 39 113 15 51 45 126 66 165 22 40 55 104
73 142 42 88 70 120 161 189 57 43 85 57 132 66 303 58 716 72 1099 39 116
-10 373 -55 390 -68 12 -10 205 -71 222 -71 28 0 172 -52 196 -70 13 -11 57
-27 96 -37 60 -14 79 -15 116 -5 25 7 61 12 80 12 l35 0 0 150 0 150 -37 0
c-20 0 -44 6 -52 14 -21 19 -136 62 -186 71 -22 4 -47 12 -55 20 -8 7 -28 15
-44 19 -16 4 -47 16 -69 26 -21 11 -60 22 -85 25 -26 4 -94 15 -152 25 -130
24 -298 49 -410 62 -126 14 -525 3 -740 -21 -473 -53 -706 -70 -965 -70 -303
-1 -461 27 -579 103 -28 18 -65 36 -81 40 -36 9 -113 54 -175 101 -25 19 -52
38 -60 42 -8 3 -45 36 -82 71 -37 36 -79 73 -94 83 -15 10 -50 42 -78 73 -50
53 -86 71 -126 60z"/>
<path d="M17430 5615 c-4 -128 -20 -427 -24 -452 -4 -30 -43 -95 -87 -148 -9
-11 -20 -31 -24 -45 -14 -51 -35 -87 -79 -133 -25 -26 -60 -80 -79 -120 -19
-40 -45 -81 -57 -92 -12 -11 -33 -41 -46 -67 -34 -68 -55 -58 -176 87 -41 50
-101 112 -132 139 -49 42 -64 49 -101 50 -37 1 -49 -4 -77 -31 -50 -49 -107
-170 -169 -361 -17 -53 -37 -96 -46 -99 -25 -10 -55 16 -128 107 -38 47 -75
89 -82 93 -7 4 -13 13 -13 19 0 6 -36 46 -80 89 -86 84 -128 105 -192 96 -55
-7 -89 -47 -156 -182 -19 -38 -44 -88 -55 -110 -11 -22 -25 -60 -32 -85 -12
-49 -46 -76 -75 -60 -8 5 -42 46 -75 92 -69 95 -71 98 -128 155 -58 59 -94 70
-144 45 -35 -19 -145 -126 -186 -183 -10 -13 -35 -49 -57 -79 -22 -30 -40 -59
-40 -64 0 -5 -11 -24 -25 -42 -14 -18 -25 -39 -26 -46 0 -7 -8 -25 -17 -39 -9
-15 -28 -45 -41 -67 -22 -38 -66 -62 -69 -38 -1 6 -8 38 -15 71 -23 101 -59
68 -50 -45 9 -111 14 -122 66 -148 26 -14 47 -31 47 -38 0 -11 19 -14 78 -14
l78 0 20 37 c10 20 27 52 37 72 10 20 22 43 27 51 6 8 18 31 27 50 10 19 28
48 40 63 13 16 23 33 23 37 0 5 14 29 30 52 17 24 38 54 48 68 48 70 76 67
138 -17 27 -36 54 -73 59 -82 6 -9 16 -23 22 -31 7 -8 25 -30 40 -49 35 -44
101 -91 126 -91 64 0 125 86 202 285 40 105 84 189 102 196 32 11 58 -3 103
-58 25 -30 54 -65 65 -77 11 -12 47 -56 80 -97 33 -40 72 -87 87 -102 15 -16
28 -32 30 -35 2 -4 20 -22 41 -39 52 -45 97 -45 138 0 36 37 73 109 99 187 10
30 31 87 45 125 15 39 31 85 36 103 12 38 42 72 64 72 8 0 26 -12 39 -27 98
-112 170 -203 182 -232 31 -73 7 -173 -57 -242 -16 -17 -35 -52 -43 -77 -24
-81 -47 -126 -83 -166 -20 -21 -49 -68 -65 -104 -21 -47 -50 -85 -104 -139
-41 -40 -74 -77 -74 -81 0 -4 -23 -20 -51 -37 -28 -16 -78 -53 -110 -81 -40
-35 -74 -55 -106 -63 -26 -7 -77 -21 -113 -32 -36 -10 -83 -21 -105 -25 -77
-12 -112 -24 -112 -39 0 -8 3 -15 6 -15 3 0 37 -5 74 -10 86 -13 180 1 262 37
33 14 62 29 65 32 11 13 51 31 70 31 33 0 82 25 125 65 22 20 55 49 73 63 47
36 101 91 114 116 10 19 25 38 70 87 21 23 51 82 68 132 6 21 18 41 25 43 24
9 82 118 98 182 10 40 25 72 40 86 14 13 28 33 32 44 7 25 40 29 91 10 28 -10
40 -9 76 7 52 24 115 85 153 151 15 27 34 56 41 64 7 8 28 47 48 85 20 39 40
77 45 85 50 83 71 123 71 135 0 7 10 26 23 41 38 44 65 29 212 -122 136 -138
165 -156 195 -119 7 8 19 15 26 15 11 0 14 19 14 80 0 59 -3 80 -13 80 -14 0
-143 136 -220 230 -70 87 -132 133 -196 145 -55 11 -56 12 -54 44 1 18 9 63
19 99 25 98 26 347 2 382 -10 13 -18 33 -18 43 0 13 -5 17 -15 13 -8 -3 -19 2
-24 12 -9 15 -10 15 -11 -3z m-245 -1054 c-3 -6 -11 -11 -17 -11 -6 0 -6 6 2
15 14 17 26 13 15 -4z"/>
<path d="M12945 5279 c-22 -5 -50 -11 -63 -14 -12 -3 -32 -15 -43 -26 -15 -15
-46 -24 -115 -34 -103 -16 -142 -32 -172 -69 -10 -14 -56 -44 -101 -66 -45
-23 -90 -53 -100 -66 -10 -13 -22 -24 -26 -24 -3 0 -21 -11 -39 -25 -18 -14
-38 -25 -43 -25 -6 0 -38 -26 -71 -57 -33 -33 -77 -65 -100 -73 -45 -16 -228
-155 -237 -180 -2 -8 -25 -37 -50 -63 -79 -85 -54 -106 62 -52 43 20 91 51
106 69 16 17 40 43 53 58 14 15 45 37 69 49 25 13 66 42 90 66 25 24 53 43 63
43 10 0 53 29 94 65 42 36 80 65 85 65 11 0 103 71 147 112 16 15 45 30 65 33
20 3 43 10 51 16 8 5 28 17 44 27 16 9 50 36 75 59 40 38 52 43 93 43 73 0
202 21 210 33 13 20 9 23 -31 35 -44 14 -60 14 -116 1z"/>
<path d="M15267 5142 c-16 -10 -32 -32 -38 -53 -28 -93 93 -162 136 -78 30 56
12 121 -38 139 -16 5 -30 10 -31 10 -1 0 -14 -8 -29 -18z"/>
<path d="M16916 5129 c-45 -35 -29 -109 24 -109 73 0 82 85 14 123 -7 4 -23
-3 -38 -14z"/>
<path d="M13062 4768 c-5 -7 -15 -47 -21 -88 -17 -108 -30 -151 -56 -182 -22
-25 -34 -50 -95 -181 -13 -27 -38 -65 -57 -85 -18 -21 -43 -62 -54 -93 -11
-31 -33 -70 -47 -86 -34 -37 -82 -107 -105 -154 -11 -20 -31 -50 -45 -66 -15
-16 -53 -64 -85 -106 -33 -43 -80 -91 -110 -111 -29 -19 -69 -52 -89 -74 -26
-28 -59 -47 -109 -66 -39 -15 -83 -36 -98 -47 -14 -11 -37 -28 -50 -38 -39
-28 -21 -58 39 -66 27 -4 67 -4 89 0 39 6 131 59 131 74 0 4 28 22 63 39 88
43 264 219 312 312 13 25 37 59 53 75 15 17 43 59 61 95 18 36 51 90 74 120
23 30 49 76 57 101 9 25 32 65 52 90 43 53 72 108 88 169 6 25 17 52 24 60 7
8 25 37 40 64 25 43 28 56 24 122 -3 65 -7 77 -33 104 -32 34 -38 36 -53 18z"/>
<path d="M3556 4233 c-3 -3 -3 -10 0 -14 7 -12 34 -11 34 0 0 11 -26 22 -34
14z"/>
<path d="M3666 4132 c-16 -27 46 -92 87 -92 40 0 7 60 -50 89 -26 13 -30 14
-37 3z"/>
<path d="M3784 4025 c-3 -7 2 -30 11 -49 13 -28 32 -43 81 -67 35 -18 64 -37
64 -43 1 -23 50 -65 94 -80 62 -21 81 -20 105 5 l20 22 -42 38 c-24 21 -61 42
-86 49 -60 15 -98 36 -105 57 -13 40 -132 96 -142 68z"/>
<path d="M4144 3349 c-3 -6 -1 -16 5 -22 8 -8 11 -5 11 11 0 24 -5 28 -16 11z"/>
<path d="M18565 2138 c-3 -18 -5 -149 -3 -291 2 -216 5 -259 18 -268 9 -6 86
-8 195 -7 163 3 184 6 225 26 61 31 74 42 94 80 34 66 14 147 -45 180 -37 21
-37 39 1 82 21 25 29 46 30 73 0 33 -7 45 -60 97 l-59 60 -195 0 -195 0 -6
-32z m363 -71 c39 -21 61 -61 46 -85 -28 -43 -63 -57 -167 -63 -132 -9 -147
-1 -147 74 0 32 6 61 16 76 16 22 21 23 118 19 70 -3 111 -9 134 -21z m12
-240 c64 -31 78 -86 36 -142 -13 -18 -28 -20 -151 -23 -100 -3 -140 0 -152 9
-20 18 -15 155 7 169 8 5 60 9 115 9 82 0 108 -4 145 -22z"/>
<path d="M20525 2006 c-16 -12 -17 -16 -6 -30 7 -9 24 -16 36 -16 30 0 42 30
19 47 -22 16 -26 16 -49 -1z"/>
<path d="M21257 2003 c-4 -3 -7 -97 -7 -208 0 -164 3 -205 14 -214 37 -31 71
28 65 109 -6 78 0 100 37 135 39 38 45 40 77 24 47 -24 57 -48 57 -145 0 -72
4 -96 18 -114 20 -25 47 -19 56 13 8 29 8 176 0 216 -5 22 -19 39 -53 62 -44
29 -49 31 -118 24 -79 -6 -79 -6 -75 55 1 26 -18 50 -42 50 -12 0 -26 -3 -29
-7z"/>
<path d="M21777 2003 c-4 -3 -7 -100 -7 -214 0 -184 2 -208 17 -213 26 -10 46
18 48 68 1 49 8 60 41 70 16 5 30 -7 72 -63 48 -62 72 -80 110 -81 24 0 12 49
-20 83 -45 47 -74 88 -82 114 -5 17 -1 26 21 40 35 22 72 64 73 81 1 35 -80 0
-143 -61 -11 -11 -29 -17 -45 -15 l-27 3 3 77 c2 43 -2 86 -8 97 -10 20 -40
28 -53 14z"/>
<path d="M22240 1985 c0 -20 5 -25 24 -25 26 0 51 24 41 40 -3 5 -19 10 -36
10 -24 0 -29 -4 -29 -25z"/>
<path d="M20232 1978 c-5 -7 -13 -24 -17 -37 -4 -14 -17 -33 -29 -42 l-21 -17
25 -27 c23 -25 25 -33 23 -116 -3 -134 16 -168 95 -169 52 0 55 17 12 67 -28
31 -30 40 -30 109 0 73 1 77 32 106 31 29 32 31 13 44 -10 8 -22 14 -26 14 -4
0 -14 18 -23 40 -16 40 -35 50 -54 28z"/>
<path d="M17490 1751 l0 -168 48 -7 c26 -3 61 -8 79 -12 25 -5 41 0 78 26 25
17 50 43 56 57 14 38 11 102 -8 133 -21 37 -108 72 -140 57 -30 -13 -49 -4
-58 30 -8 34 -23 53 -41 53 -11 0 -14 -32 -14 -169z m162 32 c40 -42 48 -72
31 -114 -15 -39 -52 -62 -80 -52 -29 10 -62 56 -63 86 0 29 55 106 76 107 5 0
22 -12 36 -27z"/>
<path d="M19443 1895 c-18 -12 -26 -13 -48 -3 -46 21 -55 -5 -55 -155 0 -127
8 -167 34 -167 29 0 40 32 41 121 2 84 3 91 30 119 16 17 38 30 50 30 25 0 45
18 45 41 0 31 -60 40 -97 14z"/>
<path d="M19760 1893 c-14 -10 -34 -23 -45 -29 -11 -6 -20 -20 -20 -30 0 -31
55 -31 89 1 19 17 38 25 64 25 45 0 58 -8 71 -42 16 -44 -7 -58 -93 -58 -70 0
-74 -1 -114 -38 -46 -43 -50 -60 -25 -103 33 -56 137 -76 206 -39 34 18 40 19
65 6 19 -10 33 -11 45 -5 15 9 17 27 17 133 l0 123 -42 34 c-39 31 -50 34
-118 37 -61 3 -80 0 -100 -15z m168 -205 c7 -39 -86 -86 -133 -68 -27 10 -41
56 -24 76 19 23 153 15 157 -8z"/>
<path d="M20840 1895 c-14 -8 -32 -17 -41 -21 -18 -6 -39 -45 -39 -73 0 -10
18 -32 40 -50 31 -25 53 -33 105 -40 80 -9 92 -19 75 -60 -11 -28 -17 -31 -55
-31 -32 0 -52 7 -73 25 -49 41 -91 30 -78 -19 7 -29 88 -66 144 -66 70 0 146
48 166 104 10 28 -67 96 -108 96 -74 0 -105 11 -115 42 -15 43 -5 58 40 58 27
0 46 -7 65 -25 34 -32 77 -31 82 2 8 53 -144 95 -208 58z"/>
<path d="M22625 1894 c-21 -11 -43 -14 -71 -9 -32 4 -43 2 -47 -9 -9 -22 -10
-258 -2 -278 4 -11 18 -18 35 -18 36 0 49 33 42 117 -4 54 -1 68 22 107 37 63
71 70 124 23 20 -19 22 -30 22 -118 0 -111 4 -129 31 -129 18 0 19 9 19 148
l0 147 -36 18 c-43 21 -99 22 -139 1z"/>
<path d="M20526 1878 c-24 -34 -23 -257 2 -288 20 -25 47 -19 56 13 10 36 7
244 -4 271 -12 32 -34 33 -54 4z"/>
<path d="M22250 1885 c-8 -10 -12 -53 -12 -133 0 -180 -1 -172 26 -172 42 0
49 21 48 152 -1 91 -5 126 -17 144 -18 28 -28 30 -45 9z"/>
<path d="M17894 1805 c-9 -22 4 -64 31 -99 13 -17 27 -43 30 -59 4 -15 11 -30
16 -33 14 -8 11 -46 -5 -58 -8 -6 -17 -21 -21 -33 -6 -21 -3 -23 32 -23 36 0
39 3 61 49 12 27 22 54 22 61 0 6 8 24 19 38 10 15 22 38 26 52 4 14 16 37 27
53 23 33 20 61 -7 65 -30 4 -64 -38 -73 -89 -5 -29 -13 -45 -24 -47 -17 -3
-29 14 -67 96 -21 44 -56 58 -67 27z"/>
</g>
</svg>
