<?xml version="1.0" standalone="no"?>
<!DOCTYPE svg PUBLIC "-//W3C//DTD SVG 20010904//EN"
 "http://www.w3.org/TR/2001/REC-SVG-20010904/DTD/svg10.dtd">
<svg version="1.0" xmlns="http://www.w3.org/2000/svg"
 width="72.000000pt" height="72.000000pt" viewBox="0 0 72.000000 72.000000"
 preserveAspectRatio="xMidYMid meet">

<g transform="translate(0.000000,72.000000) scale(0.100000,-0.100000)"
fill="#e005b9" stroke="none">
<path d="M44 708 c-41 -19 -44 -46 -44 -348 0 -306 3 -329 47 -349 33 -15 593
-15 626 0 44 20 47 43 47 349 0 306 -3 329 -47 349 -32 15 -599 14 -629 -1z
m540 -229 l59 -81 -141 -141 -142 -142 -142 142 -141 141 59 81 59 80 165 0
165 0 59 -80z"/>
</g>
</svg>
